# Blender 4.2.3 LTS
# www.blender.org
mtllib Edificio3.mtl
o Cube.004
v -7.151735 4.044891 7.001167
v -7.166583 4.085687 7.001167
v -7.204182 4.107395 7.001167
v -7.246937 4.099856 7.001167
v -7.274844 4.066598 7.001167
v -7.274844 4.023183 7.001167
v -7.246937 3.989925 7.001167
v -7.204182 3.982385 7.001167
v -7.166583 4.004093 7.001167
v -7.244682 4.044891 6.776771
v -7.255182 4.085687 6.787271
v -7.281768 4.107395 6.813857
v -7.312001 4.099856 6.844090
v -7.331734 4.066598 6.863823
v -7.331734 4.023183 6.863823
v -7.312001 3.989925 6.844090
v -7.281768 3.982385 6.813857
v -7.255182 4.004093 6.787271
v -7.469078 4.044891 6.683823
v -7.469078 4.085687 6.698672
v -7.469078 4.107395 6.736271
v -7.469078 4.099856 6.779026
v -7.469078 4.066598 6.806933
v -7.469078 4.023183 6.806933
v -7.469078 3.989925 6.779026
v -7.469078 3.982385 6.736271
v -7.469078 4.004093 6.698672
v -7.693474 4.044891 6.776771
v -7.682975 4.085687 6.787271
v -7.656388 4.107395 6.813858
v -7.626155 4.099856 6.844090
v -7.606422 4.066598 6.863823
v -7.606422 4.023183 6.863823
v -7.626155 3.989925 6.844090
v -7.656388 3.982385 6.813858
v -7.682975 4.004093 6.787271
v -7.786422 4.044891 7.001167
v -7.771573 4.085687 7.001167
v -7.733974 4.107395 7.001167
v -7.691219 4.099856 7.001167
v -7.663312 4.066598 7.001167
v -7.663312 4.023183 7.001167
v -7.691219 3.989925 7.001167
v -7.733974 3.982385 7.001167
v -7.771573 4.004093 7.001167
v -7.693474 4.044891 7.225563
v -7.682975 4.085687 7.215063
v -7.656388 4.107395 7.188477
v -7.626155 4.099856 7.158244
v -7.606422 4.066598 7.138511
v -7.606422 4.023183 7.138511
v -7.626155 3.989925 7.158244
v -7.656388 3.982385 7.188477
v -7.682975 4.004093 7.215063
v -7.469078 4.044891 7.318511
v -7.469078 4.085687 7.303662
v -7.469078 4.107395 7.266064
v -7.469078 4.099856 7.223308
v -7.469078 4.066598 7.195401
v -7.469078 4.023183 7.195401
v -7.469078 3.989925 7.223308
v -7.469078 3.982385 7.266064
v -7.469078 4.004093 7.303662
v -7.244682 4.044891 7.225563
v -7.255182 4.085687 7.215064
v -7.281768 4.107395 7.188477
v -7.312001 4.099856 7.158245
v -7.331734 4.066598 7.138511
v -7.331734 4.023183 7.138511
v -7.312001 3.989925 7.158245
v -7.281768 3.982385 7.188477
v -7.255182 4.004093 7.215064
v -7.151752 2.099938 6.629375
v -7.151752 2.099938 6.992542
v -7.151752 2.099938 7.355709
v -7.381785 2.099938 6.629375
v -7.568263 3.953350 7.067757
v -7.381785 2.099938 7.355709
v -7.611818 2.099938 6.629375
v -7.520622 3.953350 7.067757
v -7.611818 2.099938 7.355709
v -7.841850 2.099938 6.629375
v -7.841850 2.099938 6.992542
v -7.841850 2.099938 7.355709
v -7.524600 3.995892 7.080317
v -7.469003 3.995892 7.080317
v -7.413405 3.995892 7.080317
v -7.580197 3.995892 6.904768
v -7.413405 3.995892 6.904768
v -7.580197 3.995892 6.992542
v -7.413405 3.995892 6.992542
v -7.580197 3.995892 7.080317
v -7.472980 3.953350 6.917328
v -7.425339 3.953350 6.917328
v -7.520622 3.953350 6.917328
v -7.568263 3.953350 6.992542
v -7.568263 3.953350 6.917328
v -7.425339 3.953350 6.992542
v -7.425339 3.953350 7.067757
v -7.472980 3.953350 7.067757
v -7.735719 4.458306 7.244005
v -7.735719 4.458306 6.992542
v -7.735719 4.458306 6.741079
v -7.576440 4.458306 7.244005
v -7.576440 4.458306 6.992542
v -7.576440 4.458306 6.741079
v -7.417162 4.458306 7.244005
v -7.417162 4.458306 6.992542
v -7.417162 4.458306 6.741079
v -7.257884 4.458306 7.244005
v -7.257884 4.458306 6.992542
v -7.257884 4.458306 6.741079
v -7.524600 3.995892 6.904768
v -7.469003 3.995892 6.904768
v -7.425339 4.640934 7.319594
v -7.472980 4.640934 7.319594
v -7.469003 4.683475 7.307034
v -7.413405 4.683475 7.307034
v -7.472980 4.640934 7.319594
v -7.520622 4.640934 7.319594
v -7.524600 4.683475 7.307034
v -7.469003 4.683475 7.307034
v -7.829184 4.635451 6.992542
v -7.829184 4.635451 6.917328
v -7.817250 4.677993 6.904768
v -7.817250 4.677993 6.992542
v -7.520622 4.640934 7.319594
v -7.568263 4.640934 7.319594
v -7.580197 4.683475 7.307034
v -7.524600 4.683475 7.307034
v -7.164418 4.635448 6.917328
v -7.164418 4.635448 6.992542
v -7.176352 4.677991 6.992542
v -7.176352 4.677991 6.904768
v -7.829184 4.635451 7.067757
v -7.829184 4.635451 6.992542
v -7.817250 4.677993 6.992542
v -7.817250 4.677993 7.080317
v -7.472980 4.640934 6.665490
v -7.425339 4.640934 6.665490
v -7.413405 4.683475 6.678051
v -7.469003 4.683475 6.678051
v -7.164418 4.635448 6.992542
v -7.164418 4.635448 7.067757
v -7.176352 4.677991 7.080317
v -7.176352 4.677991 6.992542
v -7.520622 4.640934 6.665490
v -7.472980 4.640934 6.665490
v -7.469003 4.683475 6.678051
v -7.524600 4.683475 6.678051
v -7.568263 4.640934 6.665490
v -7.520622 4.640934 6.665490
v -7.524600 4.683475 6.678051
v -7.580197 4.683475 6.678051
v -7.496375 4.715042 6.998385
v -7.495524 4.715042 6.998385
v -7.496305 4.715802 6.998161
v -7.495311 4.715802 6.998161
v -7.497227 4.715042 6.998385
v -7.496375 4.715042 6.998385
v -7.497298 4.715802 6.998161
v -7.496305 4.715802 6.998161
v -7.502740 4.714944 6.991197
v -7.502740 4.714944 6.992541
v -7.502528 4.715703 6.990973
v -7.502528 4.715703 6.992541
v -7.498078 4.715042 6.998385
v -7.497227 4.715042 6.998385
v -7.498291 4.715802 6.998161
v -7.497298 4.715802 6.998161
v -7.490861 4.714944 6.992541
v -7.490861 4.714944 6.991197
v -7.491075 4.715703 6.992541
v -7.491075 4.715703 6.990973
v -7.502740 4.714944 6.992541
v -7.502740 4.714944 6.993885
v -7.502528 4.715703 6.992541
v -7.502528 4.715703 6.994110
v -7.495524 4.715042 6.986697
v -7.496375 4.715042 6.986697
v -7.495311 4.715802 6.986921
v -7.496305 4.715802 6.986921
v -7.490861 4.714944 6.993885
v -7.490861 4.714944 6.992541
v -7.491075 4.715703 6.994110
v -7.491075 4.715703 6.992541
v -7.496375 4.715042 6.986697
v -7.497227 4.715042 6.986697
v -7.496305 4.715802 6.986921
v -7.497298 4.715802 6.986921
v -7.497227 4.715042 6.986697
v -7.498078 4.715042 6.986697
v -7.497298 4.715802 6.986921
v -7.498291 4.715802 6.986921
vn 0.8757 0.3187 -0.3627
vn 0.4896 0.8480 -0.2028
vn -0.1732 0.9823 0.0717
vn -0.7302 0.6127 0.3024
vn -0.9239 -0.0000 0.3827
vn -0.7302 -0.6127 0.3024
vn -0.1732 -0.9823 0.0717
vn 0.4896 -0.8480 -0.2028
vn 0.8757 -0.3187 -0.3627
vn 0.3627 0.3187 -0.8757
vn 0.2028 0.8480 -0.4896
vn -0.0717 0.9823 0.1732
vn -0.3024 0.6127 0.7302
vn -0.3827 -0.0000 0.9239
vn -0.3024 -0.6127 0.7302
vn -0.0717 -0.9823 0.1732
vn 0.2028 -0.8480 -0.4896
vn 0.3627 -0.3187 -0.8757
vn -0.3627 0.3187 -0.8757
vn -0.2028 0.8480 -0.4896
vn 0.0717 0.9823 0.1732
vn 0.3024 0.6127 0.7302
vn 0.3827 -0.0000 0.9239
vn 0.3024 -0.6127 0.7302
vn 0.0717 -0.9823 0.1732
vn -0.2028 -0.8480 -0.4896
vn -0.3627 -0.3187 -0.8757
vn -0.8757 0.3187 -0.3627
vn -0.4896 0.8480 -0.2028
vn 0.1732 0.9823 0.0717
vn 0.7302 0.6127 0.3025
vn 0.9239 -0.0000 0.3827
vn 0.7302 -0.6127 0.3024
vn 0.1732 -0.9823 0.0717
vn -0.4896 -0.8480 -0.2028
vn -0.8757 -0.3187 -0.3627
vn -0.8757 0.3187 0.3627
vn -0.4896 0.8480 0.2028
vn 0.1732 0.9823 -0.0717
vn 0.7302 0.6127 -0.3024
vn 0.9239 -0.0000 -0.3827
vn 0.7302 -0.6127 -0.3024
vn 0.1732 -0.9823 -0.0717
vn -0.4896 -0.8480 0.2028
vn -0.8757 -0.3187 0.3627
vn -0.3627 0.3187 0.8757
vn -0.2028 0.8480 0.4896
vn 0.0717 0.9823 -0.1732
vn 0.3024 0.6127 -0.7301
vn 0.3827 -0.0000 -0.9239
vn 0.3024 -0.6127 -0.7302
vn 0.0717 -0.9823 -0.1732
vn -0.2028 -0.8480 0.4896
vn -0.3627 -0.3187 0.8757
vn 0.3627 0.3187 0.8757
vn 0.2028 0.8480 0.4896
vn -0.0717 0.9823 -0.1732
vn -0.3024 0.6127 -0.7302
vn -0.3827 -0.0000 -0.9239
vn -0.3024 -0.6127 -0.7301
vn -0.0718 -0.9823 -0.1732
vn 0.2028 -0.8480 0.4896
vn 0.3627 -0.3187 0.8757
vn 0.8757 0.3187 0.3627
vn 0.4896 0.8480 0.2028
vn -0.1732 0.9823 -0.0717
vn -0.7302 0.6127 -0.3024
vn -0.9239 -0.0000 -0.3827
vn -0.7302 -0.6127 -0.3024
vn -0.1732 -0.9823 -0.0717
vn 0.4896 -0.8480 0.2028
vn 0.8757 -0.3187 0.3627
vn -0.0000 -0.3337 0.9427
vn -0.9478 -0.3188 -0.0000
vn 0.9478 -0.3188 -0.0000
vn -0.0000 0.1535 0.9881
vn -0.9893 0.1460 -0.0000
vn 0.9893 0.1460 -0.0000
vn -0.0000 0.1535 -0.9881
vn -0.0000 -0.3337 -0.9427
vn -0.0000 1.0000 -0.0000
vn -0.0000 0.9946 -0.1041
vn -0.0000 0.5050 -0.8631
vn 0.9925 -0.0617 0.1054
vn -0.0000 -0.5050 0.8631
vn -0.9381 0.1749 -0.2990
vn -0.0000 0.0003 -1.0000
vn 0.9925 0.0617 -0.1054
vn -0.9925 0.0617 -0.1054
vn 0.8605 0.5095 -0.0000
vn 0.3149 0.1864 0.9306
vn -0.8605 -0.5095 -0.0000
vn -0.0000 -0.0000 -1.0000
vn -0.9875 0.1219 0.1000
vn 0.9381 0.1749 -0.2990
vn -0.9925 -0.0617 0.1054
vn 0.2366 -0.9716 -0.0000
vn -0.8605 0.5095 -0.0000
vn 0.8605 -0.5095 -0.0000
vn -0.3149 0.1864 0.9306
vn -0.9019 -0.3339 -0.2741
vn -0.0000 -0.0000 1.0000
vn 0.3149 0.1864 -0.9306
vn -0.0000 0.5050 0.8631
vn -0.9381 0.1749 0.2990
vn -0.0000 -0.5050 -0.8631
vn 0.9925 -0.0617 -0.1054
vn 0.9019 -0.3339 0.2741
vn -0.3149 0.1864 -0.9306
vn -0.0000 -0.9744 0.2248
vn -0.9925 0.0617 0.1054
vn 0.9925 0.0617 0.1054
vn 0.9875 0.1219 -0.1000
vn -0.9925 -0.0617 -0.1054
vn 0.9381 0.1749 0.2989
vn -0.0000 -0.2819 -0.9594
vn -0.0000 -0.2836 -0.9589
vn 0.9628 -0.2702 -0.0000
vn -0.0000 -0.2832 -0.9591
vn -0.9627 -0.2707 -0.0000
vn 0.9629 -0.2699 -0.0000
vn -0.0000 -0.2836 0.9589
vn -0.9627 -0.2706 -0.0000
vn -0.0000 -0.2819 0.9594
vn -0.0000 -0.2830 0.9591
vn -0.0000 0.9946 0.1041
vn 0.9875 -0.1215 -0.1001
vn -0.2862 -0.3443 0.8942
vn -0.0000 -0.9744 0.2247
vn -0.0000 -0.9745 -0.2245
vn -0.9875 -0.1219 -0.1000
vn -0.0000 -0.9744 -0.2248
vn -0.9875 -0.1221 0.1000
vn 0.1190 0.9929 -0.0000
vn 0.2863 -0.3440 0.8943
vn 0.1189 0.9929 -0.0000
vn -0.0000 -0.0006 1.0000
vn 0.9875 -0.1219 0.1000
vn -0.2364 -0.9717 -0.0000
vn -0.2366 -0.9716 -0.0000
vn -0.0000 -0.9744 -0.2250
vn 0.2862 -0.3443 -0.8942
vn -0.9018 -0.3342 0.2741
vn -0.1190 0.9929 -0.0000
vn -0.9875 0.1215 -0.1000
vn 0.9875 0.1221 0.1001
vn 0.9017 -0.3341 -0.2743
vn 0.0718 -0.9823 0.1732
vn 0.7302 0.6127 0.3024
vn 0.7302 0.6127 -0.3025
vn 0.3024 0.6127 -0.7302
vn 0.3024 -0.6127 -0.7301
vn 0.0718 -0.9823 -0.1732
vn -0.3024 0.6127 -0.7301
vn -0.3024 -0.6127 -0.7302
vn -0.9875 0.1215 0.1001
vn 0.9381 0.1749 -0.2989
vn -0.9017 -0.3341 -0.2743
vn 0.2364 -0.9717 -0.0000
vn 0.9018 -0.3342 0.2740
vn -0.0000 -0.9744 0.2249
vn 0.9875 0.1221 -0.1000
vn 0.9381 0.1749 0.2990
vn -0.0000 -0.2839 -0.9589
vn 0.9628 -0.2701 -0.0000
vn 0.9629 -0.2700 -0.0000
vn -0.0000 -0.2839 0.9589
vn 0.9875 -0.1219 -0.1000
vn -0.0000 -0.9745 0.2246
vn -0.2862 -0.3454 0.8938
vn -0.0000 -0.0003 1.0000
vn -0.9875 -0.1221 -0.1001
vn -0.0000 -0.9744 -0.2246
vn -0.9875 -0.1219 0.1000
vn 0.2862 -0.3443 0.8942
vn 0.9875 -0.1215 0.1000
vn -0.0000 0.0006 -1.0000
vn 0.2862 -0.3447 -0.8940
vn -0.9019 -0.3339 0.2741
vn -0.9875 0.1219 -0.1000
vn 0.9875 0.1219 0.1000
vn -0.1189 0.9929 -0.0000
vn 0.9019 -0.3339 -0.2741
vt 0.000000 0.000000
s 0
g off
usemtl Material
f 142/1/82 181/1/82 141/1/82
f 116/1/83 94/1/83 93/1/83
f 114/1/84 116/1/84 93/1/84
f 118/1/85 114/1/85 89/1/85
f 115/1/86 89/1/86 94/1/86
f 146/1/87 184/1/87 186/1/87
f 120/1/83 93/1/83 95/1/83
f 113/1/88 120/1/88 95/1/88
f 122/1/85 113/1/85 114/1/85
f 119/1/89 114/1/89 93/1/89
f 153/1/82 194/1/82 193/1/82
f 124/1/90 98/1/90 94/1/90
f 89/1/91 124/1/91 94/1/91
f 126/1/92 89/1/92 91/1/92
f 123/1/93 91/1/93 98/1/93
f 117/1/94 155/1/94 116/1/94
f 128/1/83 95/1/83 97/1/83
f 88/1/95 128/1/95 97/1/95
f 130/1/85 88/1/85 113/1/85
f 127/1/96 113/1/96 95/1/96
f 123/1/97 163/1/97 164/1/97
f 132/1/98 97/1/98 96/1/98
f 90/1/93 132/1/93 96/1/93
f 134/1/99 90/1/99 88/1/99
f 131/1/100 88/1/100 97/1/100
f 129/1/101 167/1/101 128/1/101
f 136/1/90 99/1/90 98/1/90
f 91/1/102 136/1/102 98/1/102
f 138/1/92 91/1/92 87/1/92
f 135/1/103 87/1/103 99/1/103
f 136/1/97 176/1/97 135/1/97
f 140/1/104 100/1/104 99/1/104
f 87/1/105 140/1/105 99/1/105
f 142/1/106 87/1/106 86/1/106
f 139/1/107 86/1/107 100/1/107
f 141/1/108 179/1/108 140/1/108
f 144/1/98 96/1/98 77/1/98
f 92/1/109 144/1/109 77/1/109
f 146/1/99 92/1/99 90/1/99
f 143/1/102 90/1/102 96/1/102
f 148/1/110 188/1/110 147/1/110
f 148/1/104 80/1/104 100/1/104
f 86/1/111 148/1/111 100/1/111
f 150/1/106 86/1/106 85/1/106
f 147/1/112 85/1/112 80/1/112
f 153/1/113 191/1/113 152/1/113
f 152/1/104 77/1/104 80/1/104
f 85/1/114 152/1/114 80/1/114
f 154/1/106 85/1/106 92/1/106
f 151/1/115 92/1/115 77/1/115
f 156/1/116 157/1/116 158/1/116
f 159/1/117 162/1/117 160/1/117
f 163/1/118 166/1/118 164/1/118
f 167/1/119 170/1/119 168/1/119
f 172/1/120 173/1/120 174/1/120
f 176/1/121 177/1/121 178/1/121
f 179/1/122 182/1/122 180/1/122
f 183/1/123 186/1/123 184/1/123
f 188/1/124 189/1/124 190/1/124
f 192/1/125 193/1/125 194/1/125
f 130/1/126 169/1/126 129/1/126
f 117/1/126 158/1/126 157/1/126
f 122/1/127 160/1/127 162/1/127
f 152/1/110 192/1/110 151/1/110
f 145/1/128 183/1/128 144/1/128
f 139/1/129 179/1/129 180/1/129
f 127/1/130 167/1/130 168/1/130
f 133/1/102 171/1/102 132/1/102
f 121/1/131 159/1/131 120/1/131
f 116/1/132 156/1/132 115/1/132
f 150/1/133 188/1/133 190/1/133
f 146/1/134 185/1/134 145/1/134
f 138/1/135 176/1/135 178/1/135
f 133/1/136 174/1/136 173/1/136
f 126/1/137 164/1/137 166/1/137
f 122/1/126 161/1/126 121/1/126
f 149/1/138 187/1/138 148/1/138
f 143/1/139 183/1/139 184/1/139
f 137/1/93 175/1/93 136/1/93
f 132/1/140 172/1/140 131/1/140
f 119/1/141 159/1/141 160/1/141
f 125/1/142 163/1/142 124/1/142
f 154/1/143 192/1/143 194/1/143
f 150/1/82 189/1/82 149/1/82
f 137/1/144 178/1/144 177/1/144
f 142/1/145 180/1/145 182/1/145
f 130/1/146 168/1/146 170/1/146
f 126/1/144 165/1/144 125/1/144
f 118/1/147 156/1/147 158/1/147
f 142/1/82 182/1/82 181/1/82
f 116/1/83 115/1/83 94/1/83
f 114/1/84 117/1/84 116/1/84
f 118/1/85 117/1/85 114/1/85
f 115/1/86 118/1/86 89/1/86
f 146/1/93 143/1/93 184/1/93
f 120/1/83 119/1/83 93/1/83
f 113/1/88 121/1/88 120/1/88
f 122/1/85 121/1/85 113/1/85
f 119/1/89 122/1/89 114/1/89
f 153/1/82 154/1/82 194/1/82
f 124/1/90 123/1/90 98/1/90
f 89/1/91 125/1/91 124/1/91
f 126/1/92 125/1/92 89/1/92
f 123/1/93 126/1/93 91/1/93
f 117/1/156 157/1/156 155/1/156
f 128/1/83 127/1/83 95/1/83
f 88/1/157 129/1/157 128/1/157
f 130/1/85 129/1/85 88/1/85
f 127/1/96 130/1/96 113/1/96
f 123/1/97 124/1/97 163/1/97
f 132/1/98 131/1/98 97/1/98
f 90/1/93 133/1/93 132/1/93
f 134/1/99 133/1/99 90/1/99
f 131/1/100 134/1/100 88/1/100
f 129/1/158 169/1/158 167/1/158
f 136/1/90 135/1/90 99/1/90
f 91/1/102 137/1/102 136/1/102
f 138/1/92 137/1/92 91/1/92
f 135/1/103 138/1/103 87/1/103
f 136/1/159 175/1/159 176/1/159
f 140/1/104 139/1/104 100/1/104
f 87/1/105 141/1/105 140/1/105
f 142/1/106 141/1/106 87/1/106
f 139/1/107 142/1/107 86/1/107
f 141/1/160 181/1/160 179/1/160
f 144/1/98 143/1/98 96/1/98
f 92/1/109 145/1/109 144/1/109
f 146/1/99 145/1/99 92/1/99
f 143/1/102 146/1/102 90/1/102
f 148/1/161 187/1/161 188/1/161
f 148/1/104 147/1/104 80/1/104
f 86/1/111 149/1/111 148/1/111
f 150/1/106 149/1/106 86/1/106
f 147/1/112 150/1/112 85/1/112
f 153/1/162 193/1/162 191/1/162
f 152/1/104 151/1/104 77/1/104
f 85/1/114 153/1/114 152/1/114
f 154/1/106 153/1/106 85/1/106
f 151/1/163 154/1/163 92/1/163
f 156/1/164 155/1/164 157/1/164
f 159/1/116 161/1/116 162/1/116
f 163/1/165 165/1/165 166/1/165
f 167/1/116 169/1/116 170/1/116
f 172/1/123 171/1/123 173/1/123
f 176/1/166 175/1/166 177/1/166
f 179/1/125 181/1/125 182/1/125
f 183/1/123 185/1/123 186/1/123
f 188/1/167 187/1/167 189/1/167
f 192/1/125 191/1/125 193/1/125
f 130/1/126 170/1/126 169/1/126
f 117/1/126 118/1/126 158/1/126
f 122/1/168 119/1/168 160/1/168
f 152/1/169 191/1/169 192/1/169
f 145/1/170 185/1/170 183/1/170
f 139/1/110 140/1/110 179/1/110
f 127/1/132 128/1/132 167/1/132
f 133/1/171 173/1/171 171/1/171
f 121/1/172 161/1/172 159/1/172
f 116/1/173 155/1/173 156/1/173
f 150/1/174 147/1/174 188/1/174
f 146/1/136 186/1/136 185/1/136
f 138/1/175 135/1/175 176/1/175
f 133/1/134 134/1/134 174/1/134
f 126/1/102 123/1/102 164/1/102
f 122/1/126 162/1/126 161/1/126
f 149/1/176 189/1/176 187/1/176
f 143/1/140 144/1/140 183/1/140
f 137/1/177 177/1/177 175/1/177
f 132/1/140 171/1/140 172/1/140
f 119/1/132 120/1/132 159/1/132
f 125/1/178 165/1/178 163/1/178
f 154/1/179 151/1/179 192/1/179
f 150/1/82 190/1/82 189/1/82
f 137/1/144 138/1/144 178/1/144
f 142/1/180 139/1/180 180/1/180
f 130/1/181 127/1/181 168/1/181
f 126/1/182 166/1/182 165/1/182
f 118/1/183 115/1/183 156/1/183
usemtl Material.004
f 1/1/1 11/1/1 2/1/1
f 2/1/2 12/1/2 3/1/2
f 12/1/3 4/1/3 3/1/3
f 13/1/4 5/1/4 4/1/4
f 14/1/5 6/1/5 5/1/5
f 15/1/6 7/1/6 6/1/6
f 16/1/7 8/1/7 7/1/7
f 17/1/8 9/1/8 8/1/8
f 1/1/9 18/1/9 10/1/9
f 19/1/10 11/1/10 10/1/10
f 20/1/11 12/1/11 11/1/11
f 21/1/12 13/1/12 12/1/12
f 13/1/13 23/1/13 14/1/13
f 23/1/14 15/1/14 14/1/14
f 24/1/15 16/1/15 15/1/15
f 16/1/16 26/1/16 17/1/16
f 17/1/17 27/1/17 18/1/17
f 27/1/18 10/1/18 18/1/18
f 28/1/19 20/1/19 19/1/19
f 20/1/20 30/1/20 21/1/20
f 30/1/21 22/1/21 21/1/21
f 31/1/22 23/1/22 22/1/22
f 32/1/23 24/1/23 23/1/23
f 24/1/24 34/1/24 25/1/24
f 34/1/25 26/1/25 25/1/25
f 35/1/26 27/1/26 26/1/26
f 36/1/27 19/1/27 27/1/27
f 28/1/28 38/1/28 29/1/28
f 29/1/29 39/1/29 30/1/29
f 30/1/30 40/1/30 31/1/30
f 40/1/31 32/1/31 31/1/31
f 41/1/32 33/1/32 32/1/32
f 42/1/33 34/1/33 33/1/33
f 43/1/34 35/1/34 34/1/34
f 44/1/35 36/1/35 35/1/35
f 45/1/36 28/1/36 36/1/36
f 37/1/37 47/1/37 38/1/37
f 47/1/38 39/1/38 38/1/38
f 48/1/39 40/1/39 39/1/39
f 49/1/40 41/1/40 40/1/40
f 50/1/41 42/1/41 41/1/41
f 42/1/42 52/1/42 43/1/42
f 52/1/43 44/1/43 43/1/43
f 44/1/44 54/1/44 45/1/44
f 54/1/45 37/1/45 45/1/45
f 46/1/46 56/1/46 47/1/46
f 56/1/47 48/1/47 47/1/47
f 48/1/48 58/1/48 49/1/48
f 49/1/49 59/1/49 50/1/49
f 59/1/50 51/1/50 50/1/50
f 51/1/51 61/1/51 52/1/51
f 61/1/52 53/1/52 52/1/52
f 53/1/53 63/1/53 54/1/53
f 63/1/54 46/1/54 54/1/54
f 55/1/55 65/1/55 56/1/55
f 65/1/56 57/1/56 56/1/56
f 57/1/57 67/1/57 58/1/57
f 67/1/58 59/1/58 58/1/58
f 68/1/59 60/1/59 59/1/59
f 69/1/60 61/1/60 60/1/60
f 70/1/61 62/1/61 61/1/61
f 71/1/62 63/1/62 62/1/62
f 72/1/63 55/1/63 63/1/63
f 1/1/64 65/1/64 64/1/64
f 65/1/65 3/1/65 66/1/65
f 66/1/66 4/1/66 67/1/66
f 4/1/67 68/1/67 67/1/67
f 5/1/68 69/1/68 68/1/68
f 69/1/69 7/1/69 70/1/69
f 7/1/70 71/1/70 70/1/70
f 71/1/71 9/1/71 72/1/71
f 9/1/72 64/1/72 72/1/72
f 1/1/1 10/1/1 11/1/1
f 2/1/2 11/1/2 12/1/2
f 12/1/3 13/1/3 4/1/3
f 13/1/4 14/1/4 5/1/4
f 14/1/5 15/1/5 6/1/5
f 15/1/6 16/1/6 7/1/6
f 16/1/7 17/1/7 8/1/7
f 17/1/8 18/1/8 9/1/8
f 1/1/9 9/1/9 18/1/9
f 19/1/10 20/1/10 11/1/10
f 20/1/11 21/1/11 12/1/11
f 21/1/12 22/1/12 13/1/12
f 13/1/13 22/1/13 23/1/13
f 23/1/14 24/1/14 15/1/14
f 24/1/15 25/1/15 16/1/15
f 16/1/16 25/1/16 26/1/16
f 17/1/17 26/1/17 27/1/17
f 27/1/18 19/1/18 10/1/18
f 28/1/19 29/1/19 20/1/19
f 20/1/20 29/1/20 30/1/20
f 30/1/21 31/1/21 22/1/21
f 31/1/22 32/1/22 23/1/22
f 32/1/23 33/1/23 24/1/23
f 24/1/24 33/1/24 34/1/24
f 34/1/148 35/1/148 26/1/148
f 35/1/26 36/1/26 27/1/26
f 36/1/27 28/1/27 19/1/27
f 28/1/28 37/1/28 38/1/28
f 29/1/29 38/1/29 39/1/29
f 30/1/30 39/1/30 40/1/30
f 40/1/149 41/1/149 32/1/149
f 41/1/32 42/1/32 33/1/32
f 42/1/33 43/1/33 34/1/33
f 43/1/34 44/1/34 35/1/34
f 44/1/35 45/1/35 36/1/35
f 45/1/36 37/1/36 28/1/36
f 37/1/37 46/1/37 47/1/37
f 47/1/38 48/1/38 39/1/38
f 48/1/39 49/1/39 40/1/39
f 49/1/150 50/1/150 41/1/150
f 50/1/41 51/1/41 42/1/41
f 42/1/42 51/1/42 52/1/42
f 52/1/43 53/1/43 44/1/43
f 44/1/44 53/1/44 54/1/44
f 54/1/45 46/1/45 37/1/45
f 46/1/46 55/1/46 56/1/46
f 56/1/47 57/1/47 48/1/47
f 48/1/48 57/1/48 58/1/48
f 49/1/151 58/1/151 59/1/151
f 59/1/50 60/1/50 51/1/50
f 51/1/152 60/1/152 61/1/152
f 61/1/153 62/1/153 53/1/153
f 53/1/53 62/1/53 63/1/53
f 63/1/54 55/1/54 46/1/54
f 55/1/55 64/1/55 65/1/55
f 65/1/56 66/1/56 57/1/56
f 57/1/57 66/1/57 67/1/57
f 67/1/154 68/1/154 59/1/154
f 68/1/59 69/1/59 60/1/59
f 69/1/155 70/1/155 61/1/155
f 70/1/61 71/1/61 62/1/61
f 71/1/62 72/1/62 63/1/62
f 72/1/63 64/1/63 55/1/63
f 1/1/64 2/1/64 65/1/64
f 65/1/65 2/1/65 3/1/65
f 66/1/66 3/1/66 4/1/66
f 4/1/67 5/1/67 68/1/67
f 5/1/68 6/1/68 69/1/68
f 69/1/69 6/1/69 7/1/69
f 7/1/70 8/1/70 71/1/70
f 71/1/71 8/1/71 9/1/71
f 9/1/72 1/1/72 64/1/72
usemtl Material.011
f 102/1/81 104/1/81 105/1/81
f 103/1/81 105/1/81 106/1/81
f 105/1/81 107/1/81 108/1/81
f 106/1/81 108/1/81 109/1/81
f 108/1/81 110/1/81 111/1/81
f 109/1/81 111/1/81 112/1/81
f 102/1/81 101/1/81 104/1/81
f 103/1/81 102/1/81 105/1/81
f 105/1/81 104/1/81 107/1/81
f 106/1/81 105/1/81 108/1/81
f 108/1/81 107/1/81 110/1/81
f 109/1/81 108/1/81 111/1/81
usemtl Material.016
f 92/1/73 104/1/73 101/1/73
f 85/1/73 107/1/73 104/1/73
f 92/1/74 102/1/74 90/1/74
f 87/1/73 107/1/73 86/1/73
f 87/1/75 111/1/75 110/1/75
f 88/1/74 102/1/74 103/1/74
f 81/1/76 77/1/76 84/1/76
f 78/1/76 80/1/76 81/1/76
f 83/1/77 77/1/77 96/1/77
f 78/1/76 99/1/76 100/1/76
f 74/1/78 99/1/78 75/1/78
f 83/1/77 97/1/77 82/1/77
f 79/1/79 97/1/79 95/1/79
f 74/1/78 94/1/78 98/1/78
f 79/1/79 93/1/79 76/1/79
f 76/1/79 94/1/79 73/1/79
f 88/1/80 106/1/80 113/1/80
f 89/1/75 111/1/75 91/1/75
f 113/1/80 109/1/80 114/1/80
f 89/1/80 109/1/80 112/1/80
f 92/1/73 85/1/73 104/1/73
f 85/1/73 86/1/73 107/1/73
f 92/1/74 101/1/74 102/1/74
f 87/1/73 110/1/73 107/1/73
f 87/1/75 91/1/75 111/1/75
f 88/1/74 90/1/74 102/1/74
f 81/1/76 80/1/76 77/1/76
f 78/1/76 100/1/76 80/1/76
f 83/1/77 84/1/77 77/1/77
f 78/1/76 75/1/76 99/1/76
f 74/1/78 98/1/78 99/1/78
f 83/1/77 96/1/77 97/1/77
f 79/1/79 82/1/79 97/1/79
f 74/1/78 73/1/78 94/1/78
f 79/1/79 95/1/79 93/1/79
f 76/1/79 93/1/79 94/1/79
f 88/1/80 103/1/80 106/1/80
f 89/1/75 112/1/75 111/1/75
f 113/1/80 106/1/80 109/1/80
f 89/1/80 114/1/80 109/1/80
