# Blender 4.2.3 LTS
# www.blender.org
mtllib Edificio2.mtl
o Cube.002
v -7.997058 2.014473 -1.394387
v -7.997058 2.014473 -1.031219
v -7.997058 2.014473 -0.668052
v -8.227091 2.014473 -1.394387
v -8.227091 2.014473 -0.668052
v -8.457122 2.014473 -1.394387
v -8.457122 2.014473 -1.031220
v -8.457122 2.014473 -0.668052
v -8.131372 3.236289 -1.169530
v -8.131372 3.244148 -1.010554
v -8.131372 3.244148 -0.900768
v -8.227091 3.223483 -1.182336
v -8.227091 3.223483 -0.880103
v -8.325569 3.198636 -1.161318
v -8.325569 3.198636 -1.056219
v -8.325390 3.200246 -0.899760
v -8.131372 4.027352 -1.169530
v -8.131372 4.019493 -1.010554
v -8.131372 4.019493 -0.900768
v -8.227091 4.040158 -1.182336
v -8.227091 4.040158 -1.031220
v -8.227091 4.040158 -0.880103
v -8.322809 4.020960 -1.163138
v -8.322809 4.020960 -1.050418
v -8.322809 4.027079 -0.893182
v -8.454363 2.039320 -1.364653
v -8.454363 2.039320 -1.056219
v -8.322809 3.242681 -1.163138
v -8.325390 3.200246 -1.007840
v -8.454541 2.037710 -1.007840
v -8.454541 2.037710 -0.695860
v -8.322809 3.242681 -1.050418
v -8.322809 3.236562 -0.893182
v -8.322809 3.223483 -1.182336
v -8.322809 3.236562 -1.018141
v -8.322809 4.040158 -1.182336
v -8.322809 4.027079 -1.018141
v -8.322809 3.223483 -1.031220
v -8.322809 3.223483 -0.880103
v -8.322809 4.040158 -1.031220
v -8.322809 4.040158 -0.880103
v -8.131372 3.236289 -1.044025
v -8.127423 3.187935 -0.910174
v -8.131372 4.027352 -1.044025
v -8.131372 4.040158 -0.880103
v -8.127367 3.187427 -1.151835
v -8.127423 3.187935 -0.995453
v -8.131372 4.040158 -1.031220
v -8.131372 4.040158 -1.182336
v -8.001007 2.050021 -0.710593
v -8.001007 2.050021 -0.995453
v -8.127367 3.187427 -1.067497
v -8.131372 3.223483 -0.880103
v -8.001063 2.050529 -1.351238
v -8.001063 2.050529 -1.067497
v -8.131372 3.223483 -1.182336
v -8.131372 3.223483 -1.031220
v -8.131372 3.244148 -1.010554
v -8.131372 3.244148 -0.900768
v -8.131372 4.019493 -1.010554
v -8.131372 4.019493 -0.900768
v -8.033573 2.048729 -1.351238
v -8.033573 2.048729 -1.067497
v -8.033516 2.048221 -0.995453
v -8.033516 2.048221 -0.710593
v -8.163881 3.234488 -1.169530
v -8.163881 3.234488 -1.044025
v -8.163881 4.025552 -1.044025
v -8.163881 4.025552 -1.169530
v -8.159933 3.186135 -0.995453
v -8.159933 3.186135 -0.910174
v -8.159876 3.185627 -1.151835
v -8.159876 3.185627 -1.067497
v -8.163881 3.242348 -1.010554
v -8.163881 3.242348 -0.900768
v -8.163881 4.017692 -1.010554
v -8.163881 4.017692 -0.900768
v -8.431389 2.038047 -1.364653
v -8.431389 2.038047 -1.056219
v -8.431568 2.036438 -1.007840
v -8.431568 2.036438 -0.695860
v -8.302595 3.197364 -1.161318
v -8.302595 3.197364 -1.056219
v -8.302417 3.198974 -1.007840
v -8.302417 3.198974 -0.899760
v -8.299835 3.241409 -1.163138
v -8.299835 3.241409 -1.050418
v -8.299835 4.019688 -1.163138
v -8.299835 4.019688 -1.050418
v -8.299835 3.235290 -1.018141
v -8.299835 3.235290 -0.893182
v -8.299835 4.025806 -1.018141
v -8.299835 4.025806 -0.893182
vn 0.0553 -0.9985 -0.0000
vn -0.0000 0.1728 -0.9850
vn -0.0000 0.1728 0.9850
vn 0.0553 0.9985 -0.0000
vn -0.0000 -0.0000 1.0000
vn -0.0000 -0.0000 -1.0000
vn -0.0553 -0.9985 -0.0000
vn -0.0553 0.9985 -0.0000
vn -0.0000 1.0000 -0.0000
vn -0.9939 0.1104 -0.0000
vn -0.9939 0.1104 0.0001
vn -1.0000 -0.0000 -0.0000
vn 1.0000 -0.0000 -0.0000
vn 0.9939 0.1104 -0.0000
vn 0.9939 0.1104 -0.0001
vn 0.0095 -0.1717 0.9851
vn 0.0095 -0.1717 -0.9851
vn -0.0095 -0.1717 0.9851
vn -0.0095 -0.1717 -0.9851
vn -0.9939 0.1104 -0.0001
vn -1.0000 -0.0000 -0.0001
vn -1.0000 -0.0000 0.0001
vn 0.9939 0.1104 0.0001
vt 0.000000 0.000000
s 0
g off
usemtl 
f 43/1/1 70/1/1 47/1/1
f 4/1/2 34/1/2 12/1/2
f 5/1/3 39/1/3 8/1/3
f 33/1/4 90/1/4 35/1/4
f 13/1/5 41/1/5 39/1/5
f 42/1/6 68/1/6 44/1/6
f 12/1/6 49/1/6 56/1/6
f 34/1/6 20/1/6 12/1/6
f 4/1/2 56/1/2 1/1/2
f 29/1/7 85/1/7 16/1/7
f 5/1/3 53/1/3 13/1/3
f 9/1/8 67/1/8 42/1/8
f 49/1/9 21/1/9 48/1/9
f 21/1/9 45/1/9 48/1/9
f 36/1/9 21/1/9 20/1/9
f 40/1/9 22/1/9 21/1/9
f 19/1/9 59/1/9 61/1/9
f 32/1/4 86/1/4 28/1/4
f 53/1/5 22/1/5 13/1/5
f 14/1/7 83/1/7 15/1/7
f 26/1/10 7/1/10 27/1/10
f 15/1/10 34/1/10 14/1/10
f 27/1/10 38/1/10 15/1/10
f 26/1/10 34/1/10 6/1/10
f 31/1/10 7/1/10 8/1/10
f 29/1/10 39/1/10 38/1/10
f 29/1/11 7/1/11 30/1/11
f 31/1/10 39/1/10 16/1/10
f 28/1/12 38/1/12 32/1/12
f 23/1/12 34/1/12 28/1/12
f 24/1/12 36/1/12 23/1/12
f 32/1/12 40/1/12 24/1/12
f 35/1/12 39/1/12 33/1/12
f 25/1/12 40/1/12 37/1/12
f 33/1/12 41/1/12 25/1/12
f 37/1/12 38/1/12 35/1/12
f 11/1/13 57/1/13 10/1/13
f 18/1/13 57/1/13 48/1/13
f 18/1/13 45/1/13 19/1/13
f 19/1/13 53/1/13 11/1/13
f 42/1/13 56/1/13 9/1/13
f 44/1/13 57/1/13 42/1/13
f 17/1/13 56/1/13 49/1/13
f 17/1/13 48/1/13 44/1/13
f 50/1/14 2/1/14 51/1/14
f 47/1/14 53/1/14 43/1/14
f 51/1/14 57/1/14 47/1/14
f 50/1/14 53/1/14 3/1/14
f 54/1/14 2/1/14 1/1/14
f 52/1/14 56/1/14 57/1/14
f 54/1/15 56/1/15 46/1/15
f 55/1/14 57/1/14 2/1/14
f 51/1/8 65/1/8 50/1/8
f 10/1/9 60/1/9 58/1/9
f 18/1/9 61/1/9 60/1/9
f 11/1/9 58/1/9 59/1/9
f 63/1/14 72/1/14 73/1/14
f 66/1/13 68/1/13 67/1/13
f 64/1/14 71/1/14 65/1/14
f 74/1/13 77/1/13 75/1/13
f 58/1/8 75/1/8 59/1/8
f 9/1/5 69/1/5 66/1/5
f 52/1/1 72/1/1 46/1/1
f 47/1/5 64/1/5 51/1/5
f 58/1/5 76/1/5 74/1/5
f 44/1/1 69/1/1 17/1/1
f 46/1/16 62/1/16 54/1/16
f 43/1/17 65/1/17 71/1/17
f 61/1/1 76/1/1 60/1/1
f 52/1/6 63/1/6 73/1/6
f 59/1/6 77/1/6 61/1/6
f 54/1/8 63/1/8 55/1/8
f 79/1/10 82/1/10 78/1/10
f 80/1/10 85/1/10 84/1/10
f 87/1/12 88/1/12 86/1/12
f 91/1/12 92/1/12 90/1/12
f 15/1/6 79/1/6 27/1/6
f 28/1/5 88/1/5 23/1/5
f 27/1/4 78/1/4 26/1/4
f 29/1/5 80/1/5 84/1/5
f 37/1/7 93/1/7 25/1/7
f 14/1/18 78/1/18 82/1/18
f 23/1/7 89/1/7 24/1/7
f 31/1/4 80/1/4 30/1/4
f 16/1/19 81/1/19 31/1/19
f 33/1/6 93/1/6 91/1/6
f 32/1/6 89/1/6 87/1/6
f 35/1/5 92/1/5 37/1/5
f 43/1/1 71/1/1 70/1/1
f 4/1/2 6/1/2 34/1/2
f 5/1/3 13/1/3 39/1/3
f 33/1/4 91/1/4 90/1/4
f 13/1/5 22/1/5 41/1/5
f 42/1/6 67/1/6 68/1/6
f 12/1/6 20/1/6 49/1/6
f 34/1/6 36/1/6 20/1/6
f 4/1/2 12/1/2 56/1/2
f 29/1/7 84/1/7 85/1/7
f 5/1/3 3/1/3 53/1/3
f 9/1/8 66/1/8 67/1/8
f 49/1/9 20/1/9 21/1/9
f 21/1/9 22/1/9 45/1/9
f 36/1/9 40/1/9 21/1/9
f 40/1/9 41/1/9 22/1/9
f 19/1/9 11/1/9 59/1/9
f 32/1/4 87/1/4 86/1/4
f 53/1/5 45/1/5 22/1/5
f 14/1/7 82/1/7 83/1/7
f 26/1/10 6/1/10 7/1/10
f 15/1/10 38/1/10 34/1/10
f 27/1/10 7/1/10 38/1/10
f 26/1/10 14/1/10 34/1/10
f 31/1/10 30/1/10 7/1/10
f 29/1/10 16/1/10 39/1/10
f 29/1/10 38/1/10 7/1/10
f 31/1/20 8/1/20 39/1/20
f 28/1/12 34/1/12 38/1/12
f 23/1/12 36/1/12 34/1/12
f 24/1/12 40/1/12 36/1/12
f 32/1/12 38/1/12 40/1/12
f 35/1/12 38/1/12 39/1/12
f 25/1/12 41/1/12 40/1/12
f 33/1/21 39/1/21 41/1/21
f 37/1/22 40/1/22 38/1/22
f 11/1/13 53/1/13 57/1/13
f 18/1/13 10/1/13 57/1/13
f 18/1/13 48/1/13 45/1/13
f 19/1/13 45/1/13 53/1/13
f 42/1/13 57/1/13 56/1/13
f 44/1/13 48/1/13 57/1/13
f 17/1/13 9/1/13 56/1/13
f 17/1/13 49/1/13 48/1/13
f 50/1/14 3/1/14 2/1/14
f 47/1/14 57/1/14 53/1/14
f 51/1/14 2/1/14 57/1/14
f 50/1/14 43/1/14 53/1/14
f 54/1/14 55/1/14 2/1/14
f 52/1/14 46/1/14 56/1/14
f 54/1/14 1/1/14 56/1/14
f 55/1/23 52/1/23 57/1/23
f 51/1/8 64/1/8 65/1/8
f 10/1/9 18/1/9 60/1/9
f 18/1/9 19/1/9 61/1/9
f 11/1/9 10/1/9 58/1/9
f 63/1/14 62/1/14 72/1/14
f 66/1/13 69/1/13 68/1/13
f 64/1/14 70/1/14 71/1/14
f 74/1/13 76/1/13 77/1/13
f 58/1/8 74/1/8 75/1/8
f 9/1/5 17/1/5 69/1/5
f 52/1/1 73/1/1 72/1/1
f 47/1/5 70/1/5 64/1/5
f 58/1/5 60/1/5 76/1/5
f 44/1/1 68/1/1 69/1/1
f 46/1/16 72/1/16 62/1/16
f 43/1/17 50/1/17 65/1/17
f 61/1/1 77/1/1 76/1/1
f 52/1/6 55/1/6 63/1/6
f 59/1/6 75/1/6 77/1/6
f 54/1/8 62/1/8 63/1/8
f 79/1/10 83/1/10 82/1/10
f 80/1/10 81/1/10 85/1/10
f 87/1/12 89/1/12 88/1/12
f 91/1/12 93/1/12 92/1/12
f 15/1/6 83/1/6 79/1/6
f 28/1/5 86/1/5 88/1/5
f 27/1/4 79/1/4 78/1/4
f 29/1/5 30/1/5 80/1/5
f 37/1/7 92/1/7 93/1/7
f 14/1/18 26/1/18 78/1/18
f 23/1/7 88/1/7 89/1/7
f 31/1/4 81/1/4 80/1/4
f 16/1/19 85/1/19 81/1/19
f 33/1/6 25/1/6 93/1/6
f 32/1/6 24/1/6 89/1/6
f 35/1/5 90/1/5 92/1/5
